<svg width="78" height="80" viewBox="0 0 78 80" fill="none" xmlns="http://www.w3.org/2000/svg">
<g clip-path="url(#clip0_47334_1053)">
<path d="M3.12229 33.5488L3.0439 33.8618H3.03345L3.12229 33.5488Z" fill="#FDFFFF"/>
<path d="M69.5222 67.2602C70.4486 67.2602 71.1995 66.5107 71.1995 65.5862C71.1995 64.6616 70.4486 63.9121 69.5222 63.9121C68.5959 63.9121 67.845 64.6616 67.845 65.5862C67.845 66.5107 68.5959 67.2602 69.5222 67.2602Z" fill="#FDFFFF"/>
<path d="M8.1544 67.5439C8.21712 67.4787 8.29552 67.4448 8.38438 67.4448H8.69275V66.9492H5.44434V67.4448H5.75533C5.84417 67.4448 5.91997 67.4787 5.98531 67.5439C6.04802 67.6091 6.082 67.6874 6.082 67.7761V73.358C6.082 73.4467 6.04802 73.525 5.98531 73.5902C5.91997 73.6554 5.84417 73.6893 5.75533 73.6893H5.44434V74.1849H8.69275V73.6893H8.38438C8.29552 73.6893 8.21712 73.6554 8.1544 73.5902C8.08906 73.525 8.05771 73.4467 8.05771 73.358V67.7761C8.05771 67.6874 8.08906 67.6091 8.1544 67.5439Z" fill="#FDFFFF"/>
<path d="M15.5633 74.5216L15.4248 74.2426C15.3046 74.0313 15.2262 73.7991 15.1896 73.5513C15.1713 73.4444 15.1635 73.2983 15.1635 73.1131V69.3857C15.1635 69.1327 15.1034 68.9032 14.9805 68.6919C14.8603 68.4832 14.6957 68.3163 14.484 68.1911C14.2749 68.0685 14.0476 68.0059 13.8019 68.0059C13.5589 68.0007 13.3315 68.0607 13.1172 68.1807L11.8393 68.7467V67.9824H9.48985V67.9902H9.22852V68.4858H9.53689C9.62575 68.4858 9.70415 68.5171 9.76687 68.5797C9.8322 68.6449 9.86356 68.7232 9.86356 68.8145V73.3479C9.86356 73.4365 9.8322 73.5148 9.76687 73.58C9.70415 73.6452 9.62575 73.6791 9.53689 73.6791H9.22852V74.1747H12.4822V73.6791H12.1712C12.0823 73.6791 12.0065 73.6452 11.9412 73.58C11.8785 73.5148 11.8445 73.4365 11.8445 73.3479V70.1865H11.8393V69.7326C11.8393 69.5631 11.9177 69.4248 12.0692 69.3231L13.193 68.7623V69.1249L13.1852 72.9801C13.1852 73.1079 13.2296 73.2383 13.3158 73.3713C13.3995 73.5044 13.5144 73.6139 13.6556 73.6948L15.4196 74.6807C15.4692 74.7094 15.5137 74.7068 15.5529 74.6729C15.5921 74.639 15.5947 74.5895 15.5633 74.5216Z" fill="#FDFFFF"/>
<path d="M21.365 67.5439C21.4304 67.4787 21.5088 67.4448 21.6002 67.4448H21.9112V66.9492H18.6524V67.4448H18.9633C19.0548 67.4448 19.1332 67.4787 19.1959 67.5439C19.2613 67.6091 19.2926 67.6874 19.2926 67.7813V68.6916H18.6628C18.2813 68.6916 17.9284 68.7855 17.5992 68.9759L16.5956 69.5576C16.4493 69.6384 16.3343 69.7532 16.248 69.8993C16.1618 70.048 16.12 70.2071 16.12 70.3766V72.4999C16.12 72.6694 16.1618 72.8285 16.248 72.9772C16.3343 73.1233 16.4493 73.2406 16.5956 73.3267L17.5992 73.9032C17.9284 74.091 18.2813 74.1849 18.6628 74.1849H21.9112V73.6893H21.6002C21.5088 73.6893 21.4304 73.6554 21.365 73.5902C21.3023 73.525 21.271 73.4467 21.271 73.3528V67.7813C21.271 67.6874 21.3023 67.6091 21.365 67.5439ZM19.2979 73.6893H18.4224C18.3309 73.6893 18.2525 73.6554 18.1872 73.5902C18.1244 73.525 18.0905 73.4467 18.0905 73.3528V69.5237C18.0905 69.4324 18.1244 69.3542 18.1872 69.289C18.2525 69.2263 18.3309 69.1924 18.4224 69.1924H19.2979V73.6893Z" fill="#FDFFFF"/>
<path d="M25.7032 67.9824V68.5015C25.7921 68.5015 25.8705 68.5328 25.9332 68.6006C25.9985 68.6658 26.0299 68.7467 26.0299 68.8432V73.4861C26.0299 73.58 25.9985 73.6583 25.9332 73.7261C25.8705 73.7939 25.7921 73.8278 25.7032 73.8278H25.0734C24.9845 73.8278 24.9087 73.7939 24.8434 73.7261C24.7807 73.6583 24.7467 73.58 24.7467 73.4861V68.8432C24.7467 68.7467 24.7807 68.6658 24.8434 68.6006C24.9087 68.5328 24.9845 68.5015 25.0734 68.5015V67.9824H22.4443V68.5015C22.5332 68.5015 22.6116 68.5328 22.6743 68.6006C22.7396 68.6658 22.771 68.7467 22.771 68.8432V72.6019C22.771 72.7792 22.8128 72.9435 22.8991 73.0948C22.9853 73.2461 23.1003 73.3661 23.2466 73.4548L24.2502 74.0521C24.5821 74.2477 24.9375 74.3442 25.3138 74.3442H25.4628C25.8417 74.3442 26.1945 74.2477 26.5264 74.0521L27.53 73.4548C27.6763 73.3661 27.7939 73.2461 27.8775 73.0948C27.9638 72.9435 28.0056 72.7792 28.0056 72.6019V68.8432C28.0056 68.7467 28.0396 68.6658 28.1023 68.6006C28.1676 68.5328 28.2434 68.5015 28.3323 68.5015V67.9824H25.7032Z" fill="#FDFFFF"/>
<path d="M34.0162 70.1055V69.3178C34.0162 69.1483 33.9744 68.9943 33.8908 68.8483C33.8072 68.7022 33.6922 68.5848 33.5458 68.5014L32.5371 67.9301C32.2104 67.7423 31.8576 67.6484 31.4787 67.6484H31.4107C31.0292 67.6484 30.6738 67.7423 30.3471 67.9301L29.3409 68.5014C29.1972 68.5848 29.0796 68.7022 28.996 68.8483C28.9097 68.9943 28.8679 69.1483 28.8679 69.3178V70.7889L32.0458 71.6993V73.5225C32.0458 73.6138 32.0144 73.6894 31.9491 73.752C31.8864 73.8172 31.808 73.8486 31.7139 73.8486H31.1703C31.0762 73.8486 30.9978 73.8172 30.9351 73.752C30.8698 73.6894 30.8384 73.6138 30.8384 73.5225V71.9079H28.8679V72.6748C28.8679 72.8469 28.9097 73.0061 28.996 73.1495C29.0796 73.2956 29.1972 73.4104 29.3409 73.4912L30.3471 74.0625C30.6738 74.2502 31.0292 74.3441 31.4107 74.3441H31.4787C31.8576 74.3441 32.2104 74.2502 32.5371 74.0625L33.5458 73.4912C33.6922 73.4104 33.8072 73.2956 33.8908 73.1495C33.9744 73.0061 34.0162 72.8469 34.0162 72.6748V71.2089L30.8384 70.2985V68.4753C30.8384 68.3814 30.8698 68.3031 30.9351 68.2405C30.9978 68.1753 31.0762 68.144 31.1703 68.144H31.7139C31.808 68.144 31.8864 68.1753 31.9491 68.2405C32.0144 68.3031 32.0458 68.3814 32.0458 68.4753V70.1055H34.0162Z" fill="#FDFFFF"/>
<path d="M34.552 67.9609V68.4565H35.7254C35.8116 68.4565 35.8848 68.4852 35.9449 68.5426C36.005 68.6 36.0416 68.6678 36.0521 68.7513V74.1845H38.0252V68.793C38.0252 68.7017 38.0565 68.6209 38.1192 68.5557C38.1846 68.4905 38.263 68.4565 38.3545 68.4565H39.5305V67.9609H34.552Z" fill="#FDFFFF"/>
<path d="M45.6379 68.6136C45.4837 68.3789 45.2799 68.2067 45.029 68.0946C44.6135 67.925 44.211 67.9485 43.8164 68.165L42.677 68.8588V67.9824H40.0636V68.4858H40.3746C40.4635 68.4858 40.5392 68.5171 40.6046 68.5823C40.6673 68.6502 40.7013 68.7284 40.7013 68.8197V73.3739C40.6934 73.46 40.6595 73.533 40.5967 73.5931C40.534 73.6531 40.4608 73.6843 40.3746 73.6843H40.0636V74.1851H43.312V73.6843H43.0036C42.92 73.6843 42.8495 73.6557 42.7867 73.6009C42.724 73.5461 42.6874 73.4783 42.677 73.3948V71.7098H42.6874V69.8239C42.6874 69.7013 42.7162 69.5892 42.7737 69.4874C42.8312 69.3831 42.9096 69.3023 43.0089 69.2423L43.8896 68.7075V70.283H45.8679V69.3857C45.8679 69.104 45.7895 68.8484 45.6379 68.6136Z" fill="#FDFFFF"/>
<path d="M49.66 67.9824V68.4858C49.7488 68.4858 49.8247 68.5171 49.89 68.5797C49.9527 68.6449 49.9867 68.7232 49.9867 68.8145V69.2631C49.971 69.2605 49.9605 69.2579 49.9527 69.2579V73.2096C49.9527 73.3113 49.9475 73.4105 49.9318 73.5017C49.8691 73.6009 49.7776 73.6531 49.66 73.6531H49.0302C48.9413 73.6531 48.8629 73.6191 48.8002 73.5539C48.7349 73.4887 48.7035 73.4078 48.7035 73.3166V68.8145C48.7035 68.7232 48.7349 68.6449 48.8002 68.5797C48.8629 68.5171 48.9413 68.4858 49.0302 68.4858V67.9824H46.4011V68.4858C46.49 68.4858 46.5658 68.5171 46.6311 68.5797C46.6938 68.6449 46.7278 68.7232 46.7278 68.8145V72.4636C46.7278 72.6332 46.7696 72.7923 46.8559 72.941C46.9395 73.087 47.0571 73.2018 47.2034 73.2826L48.207 73.8643C48.5389 74.0573 48.8917 74.1538 49.2706 74.1538H49.4196C49.5189 74.1538 49.6208 74.1434 49.7253 74.1278C49.6835 74.2086 49.6234 74.3208 49.5424 74.4668L48.7087 75.6093C48.6486 75.6772 48.6303 75.7371 48.6565 75.7893C48.68 75.8441 48.7505 75.8467 48.8629 75.7997L51.5129 73.9713C51.5756 73.9295 51.6279 73.8773 51.6749 73.8173C51.8422 73.5956 51.9258 73.2826 51.9258 72.8731V72.7192C51.9493 72.6332 51.9624 72.5471 51.9624 72.4636V68.8145C51.9624 68.7232 51.9937 68.6449 52.0591 68.5797C52.1218 68.5171 52.2002 68.4858 52.2891 68.4858V67.9824H49.66Z" fill="#FDFFFF"/>
<path d="M54.5288 74.6199C54.331 74.6199 54.1218 74.5967 53.9071 74.5506C53.695 74.5061 53.46 74.4335 53.1895 74.3283C53.0593 74.2778 52.9919 74.1342 53.0366 74.002L53.2267 73.4385C53.2494 73.3713 53.2984 73.316 53.363 73.2859C53.3982 73.2694 53.4363 73.261 53.4743 73.261C53.5059 73.261 53.5376 73.2666 53.5677 73.2783C53.7749 73.3572 53.9551 73.4151 54.1034 73.4497C54.2409 73.4818 54.3752 73.4981 54.5025 73.4981C54.7526 73.4981 54.9979 73.4461 55.2312 73.3437C55.4675 73.2398 55.6829 73.0936 55.871 72.9092C56.0578 72.7253 56.2035 72.5197 56.3036 72.2986C56.4018 72.0808 56.4518 71.8442 56.4518 71.5951C56.4518 71.3253 56.4021 71.08 56.3041 70.8663C56.2028 70.6454 56.0537 70.4325 55.8608 70.2338C55.6714 70.0257 55.4716 69.8785 55.2608 69.7893C55.0487 69.7002 54.8129 69.6548 54.5607 69.6548H54.4341L54.3777 69.6569L54.27 69.6645C54.2274 69.6678 54.1705 69.6726 54.1026 69.6798C54.0934 69.6808 54.0842 69.6813 54.0753 69.6813C53.9837 69.6813 53.8979 69.6334 53.8507 69.5537C53.7984 69.4661 53.8022 69.3563 53.8602 69.2725L54.7858 67.9329H53.8275C53.6831 67.9329 53.5662 67.8162 53.5662 67.672V67.0772C53.5662 66.9331 53.6831 66.8164 53.8275 66.8164H56.4335C56.531 66.8164 56.6205 66.8707 56.6655 66.957C56.7104 67.0436 56.7032 67.1478 56.6471 67.2275L55.5744 68.7472C55.7937 68.8346 55.9994 68.937 56.1885 69.0537C56.4802 69.233 56.7285 69.4556 56.9263 69.7152C57.1299 69.9663 57.2902 70.258 57.3987 70.5761C57.5056 70.8912 57.56 71.2267 57.56 71.5737C57.56 71.9896 57.4824 72.3865 57.329 72.7535C57.1769 73.1181 56.9551 73.4533 56.6698 73.75C56.3717 74.0323 56.0453 74.246 55.6906 74.3942C55.3327 74.544 54.9418 74.6199 54.5288 74.6199Z" fill="#D9BB75"/>
<path d="M59.6364 70.1003L59.6416 70.0977C59.6468 70.0873 59.652 70.0768 59.6599 70.0664L59.6364 70.1003Z" fill="#D9BB75"/>
<path d="M62.0433 66.5966C62.0563 66.667 62.038 66.7401 61.9962 66.7974L61.748 67.1392L61.1025 68.0182H61.1208L60.8385 68.412H60.8176C60.1277 68.412 59.4952 68.6546 58.9961 69.0615L59.2025 68.7433C59.2104 68.7328 59.2182 68.725 59.2261 68.7146C59.2339 68.7016 59.2418 68.6885 59.2522 68.6781C59.2809 68.6338 59.3071 68.5998 59.3358 68.5738C59.3463 68.5607 59.3593 68.5477 59.3724 68.532C59.4142 68.4746 59.4613 68.4094 59.5109 68.3416C59.558 68.2738 59.6076 68.2059 59.6573 68.1382C59.7409 68.0234 59.8193 67.9165 59.8977 67.8095C59.9709 67.7078 60.0414 67.6087 60.1068 67.5121C60.1172 67.4939 60.1277 67.473 60.146 67.4548C60.1512 67.4469 60.1643 67.4339 60.1721 67.426L60.1852 67.4052L60.2531 67.3165C60.2636 67.293 60.2792 67.2696 60.2949 67.2513L60.308 67.233C60.3132 67.2252 60.3185 67.2174 60.3263 67.2122L60.3289 67.2044C60.3446 67.173 60.3655 67.147 60.3916 67.1235C60.4021 67.113 60.4125 67.1 60.4204 67.0896C60.4204 67.0896 60.4988 66.98 60.504 66.9774C60.5118 66.9618 60.5249 66.9487 60.5354 66.9357C60.5354 66.9357 60.551 66.9174 60.5563 66.9122L60.5641 66.8966C60.5746 66.8757 60.5876 66.8548 60.6007 66.8365C60.6112 66.8209 60.6216 66.8027 60.6321 66.787C60.6321 66.787 60.6503 66.7609 60.6503 66.7583C60.6608 66.7322 60.6765 66.7061 60.6948 66.6853C60.7 66.6775 60.7235 66.6435 60.7235 66.6435C60.7314 66.6331 60.7418 66.6149 60.747 66.6044C60.7993 66.5314 60.8568 66.4531 60.9221 66.3697L61.0894 66.1558C61.1417 66.0906 61.2175 66.0566 61.2959 66.0566C61.3455 66.0566 61.3952 66.0697 61.4396 66.101L61.9309 66.427C61.991 66.4662 62.0302 66.5288 62.0433 66.5966Z" fill="#D9BB75"/>
<path d="M70.331 71.6636C70.1719 73.599 68.6142 75.1758 66.6775 75.3614C65.6787 75.4571 64.745 75.1921 63.9927 74.6824C63.9927 74.6805 63.9909 74.6805 63.9909 74.6805C63.5916 74.4099 63.2436 74.0699 62.967 73.6805C63.3516 73.3605 63.6502 72.94 63.8151 72.4574C64.2543 73.4032 65.2238 74.054 66.342 74.027C67.7493 73.9931 68.923 72.8467 68.9851 71.4431C69.0538 69.8917 67.8142 68.6127 66.2751 68.6127C65.0918 68.6127 64.0843 69.3714 63.7162 70.4299C63.6209 70.6986 63.5678 70.9857 63.5641 71.2855V71.3202C63.555 72.0881 63.2271 72.781 62.7069 73.2728C62.6574 73.3222 62.6061 73.3679 62.553 73.4099C62.0804 73.7957 61.476 74.0278 60.8165 74.0278C60.311 74.0278 59.8384 73.8925 59.4318 73.6549C58.6167 73.1777 58.069 72.2947 58.069 71.2855C58.069 69.7717 59.2981 68.5432 60.8165 68.5432C61.399 68.5432 61.9394 68.7242 62.3827 69.0331L62.3834 69.0367C62.1424 69.4398 61.9732 69.8882 61.8899 70.3659C61.5886 70.0207 61.1202 69.8227 60.6099 69.8941C59.9768 69.9826 59.469 70.5041 59.3972 71.1381C59.2998 71.9983 59.9723 72.728 60.8165 72.728C61.2873 72.728 61.7049 72.4995 61.965 72.1484C61.9696 72.1423 61.9741 72.1362 61.9786 72.1302C62.1413 71.9107 62.2191 71.6422 62.208 71.3694C62.2072 71.3515 62.2105 71.1301 62.2178 71.0369C62.2599 70.4153 62.4413 69.8339 62.7344 69.322C62.738 69.311 62.7435 69.3019 62.7508 69.2928C63.4524 68.077 64.7694 67.2598 66.2751 67.2598C66.9656 67.2598 67.6159 67.4316 68.1837 67.7333C68.1837 67.7333 68.1856 67.7333 68.1856 67.7351C69.5653 68.4668 70.4705 69.9668 70.331 71.6636Z" fill="#D9BB75"/>
<path d="M59.7606 70.6836C59.7527 70.694 59.7475 70.7045 59.7423 70.7149L59.7371 70.7175L59.7606 70.6836Z" fill="#D9BB75"/>
<path d="M5.79126 76.782C5.79126 76.7672 5.79872 76.7598 5.81358 76.7598H6.03181C6.04659 76.7598 6.05405 76.7672 6.05405 76.782V78.2488C6.05405 78.2636 6.04659 78.271 6.03181 78.271H5.81358C5.79872 78.271 5.79126 78.2636 5.79126 78.2488V76.782Z" fill="#FDFFFF"/>
<path d="M7.27869 76.782C7.27869 76.7672 7.28615 76.7598 7.301 76.7598H7.50583C7.52213 76.7598 7.53478 76.7672 7.54369 76.782L8.16053 77.8243H8.16944V76.782C8.16944 76.7672 8.17683 76.7598 8.19168 76.7598H8.38539C8.40024 76.7598 8.40763 76.7672 8.40763 76.782V78.2488C8.40763 78.2636 8.40024 78.271 8.38539 78.271H8.18277C8.16639 78.271 8.15383 78.2636 8.14491 78.2488L7.52586 77.2086H7.51695V78.2488C7.51695 78.2636 7.50956 78.271 7.49471 78.271H7.301C7.28615 78.271 7.27869 78.2636 7.27869 78.2488V76.782Z" fill="#FDFFFF"/>
<path d="M9.63232 76.7802C9.63232 76.7653 9.63979 76.7578 9.65464 76.7578H10.1968C10.4616 76.7578 10.6305 76.8699 10.7033 77.094C10.7092 77.1133 10.7145 77.1337 10.7189 77.1551C10.7234 77.1767 10.7274 77.203 10.7312 77.2342C10.7349 77.2654 10.7375 77.3035 10.739 77.3488C10.7405 77.394 10.7412 77.4494 10.7412 77.5146C10.7412 77.5798 10.7405 77.6352 10.739 77.6805C10.7375 77.7256 10.7349 77.7639 10.7312 77.7951C10.7274 77.8263 10.7234 77.8526 10.7189 77.874C10.7145 77.8956 10.7092 77.916 10.7033 77.9353C10.6305 78.1593 10.4616 78.2714 10.1968 78.2714H9.65464C9.63979 78.2714 9.63232 78.2639 9.63232 78.2492V76.7802ZM9.89512 78.0203C9.89512 78.0291 9.89954 78.0335 9.90845 78.0335H10.1334C10.218 78.0335 10.2859 78.0188 10.3371 77.9891C10.3883 77.9596 10.425 77.9108 10.4474 77.8429C10.4518 77.8325 10.4554 77.8196 10.4585 77.8041C10.4615 77.7886 10.464 77.7685 10.4663 77.7442C10.4685 77.7197 10.4704 77.6891 10.4718 77.6522C10.4733 77.6152 10.474 77.5693 10.474 77.5146C10.474 77.4598 10.4733 77.4141 10.4718 77.3771C10.4704 77.3402 10.4685 77.3092 10.4663 77.2839C10.464 77.2588 10.4615 77.2389 10.4585 77.2242C10.4554 77.2093 10.4518 77.1968 10.4474 77.1863C10.425 77.1183 10.3883 77.0697 10.3371 77.04C10.2859 77.0105 10.218 76.9956 10.1334 76.9956H9.90845C9.89954 76.9956 9.89512 77 9.89512 77.009V78.0203Z" fill="#FDFFFF"/>
<path d="M12.4625 78.0577C12.5501 78.0577 12.6214 78.03 12.6763 77.9745C12.7312 77.919 12.7587 77.8387 12.7587 77.7337V76.782C12.7587 76.7672 12.7661 76.7598 12.7809 76.7598H12.9992C13.014 76.7598 13.0214 76.7672 13.0214 76.782V77.7399C13.0214 77.8273 13.0073 77.9055 12.9791 77.9744C12.9509 78.0432 12.912 78.1013 12.8622 78.1488C12.8125 78.1962 12.7534 78.2326 12.6852 78.2576C12.6169 78.2829 12.5427 78.2955 12.4625 78.2955C12.3823 78.2955 12.3085 78.2829 12.241 78.2576C12.1734 78.2326 12.1147 78.1962 12.0651 78.1488C12.0153 78.1013 11.9763 78.0432 11.9482 77.9744C11.92 77.9055 11.9059 77.8273 11.9059 77.7399V76.782C11.9059 76.7672 11.9133 76.7598 11.9281 76.7598H12.1464C12.1611 76.7598 12.1686 76.7672 12.1686 76.782V77.7337C12.1686 77.8387 12.196 77.919 12.251 77.9745C12.3059 78.03 12.3764 78.0577 12.4625 78.0577Z" fill="#FDFFFF"/>
<path d="M14.7137 78.2949C14.6572 78.2949 14.6024 78.2896 14.5489 78.2793C14.4954 78.2688 14.4446 78.2545 14.3964 78.2365C14.3481 78.2186 14.3036 78.1973 14.2628 78.1727C14.2219 78.148 14.1867 78.1214 14.157 78.093C14.1451 78.081 14.1437 78.0699 14.1526 78.0594L14.2906 77.8993C14.301 77.8874 14.3114 77.8867 14.3218 77.897C14.3455 77.9163 14.3727 77.9356 14.403 77.9548C14.4334 77.9741 14.4661 77.9911 14.5011 78.006C14.5359 78.0208 14.5727 78.0331 14.6113 78.0427C14.6498 78.0522 14.6907 78.0571 14.7337 78.0571C14.8243 78.0571 14.8944 78.0367 14.9442 77.996C14.9939 77.9552 15.0187 77.9031 15.0187 77.8392C15.0187 77.7845 14.9987 77.7396 14.9586 77.7048C14.9186 77.67 14.8465 77.6452 14.7426 77.6303L14.6625 77.6192C14.5156 77.5985 14.4027 77.5529 14.3241 77.4827C14.2453 77.4123 14.206 77.314 14.206 77.1881C14.206 77.12 14.2179 77.0577 14.2416 77.0014C14.2653 76.9451 14.2995 76.8969 14.3441 76.857C14.3886 76.817 14.4424 76.7862 14.5055 76.7647C14.5686 76.7432 14.6395 76.7324 14.7182 76.7324C14.8132 76.7324 14.9033 76.7464 14.9887 76.7739C15.074 76.8016 15.1472 76.8387 15.208 76.8851C15.2184 76.8941 15.2199 76.9045 15.2125 76.9164L15.1056 77.0814C15.0967 77.0932 15.0863 77.0955 15.0744 77.0881C15.012 77.0481 14.9519 77.0184 14.8941 76.9991C14.8362 76.98 14.7753 76.9702 14.7115 76.9702C14.6342 76.9702 14.5753 76.9892 14.5344 77.0269C14.4936 77.0648 14.4732 77.1133 14.4732 77.1726C14.4732 77.2245 14.4941 77.2678 14.5357 77.3026C14.5774 77.3374 14.6496 77.3622 14.7523 77.377L14.8327 77.3881C14.98 77.4089 15.0925 77.4545 15.1699 77.5248C15.2473 77.5952 15.286 77.6955 15.286 77.826C15.286 77.8926 15.2739 77.9548 15.25 78.0127C15.2261 78.0705 15.1898 78.1201 15.1412 78.1616C15.0925 78.2031 15.0325 78.2356 14.9611 78.2593C14.8897 78.2831 14.8072 78.2949 14.7137 78.2949Z" fill="#FDFFFF"/>
<path d="M16.7712 78.2714C16.7563 78.2714 16.7489 78.2639 16.7489 78.2492V77.009C16.7489 77 16.7444 76.9956 16.7355 76.9956H16.3391C16.3243 76.9956 16.3169 76.9882 16.3169 76.9733V76.7803C16.3169 76.7654 16.3243 76.7578 16.3391 76.7578H17.4214C17.4362 76.7578 17.4436 76.7654 17.4436 76.7803V76.9733C17.4436 76.9882 17.4362 76.9956 17.4214 76.9956H17.025C17.0161 76.9956 17.0117 77 17.0117 77.009V78.2492C17.0117 78.2639 17.0042 78.2714 16.9893 78.2714H16.7712Z" fill="#FDFFFF"/>
<path d="M19.4098 78.2714C19.3935 78.2714 19.3823 78.2639 19.3765 78.2492L19.087 77.6602H18.8264C18.8175 77.6602 18.8131 77.6647 18.8131 77.6735V78.2492C18.8131 78.2639 18.8056 78.2714 18.7908 78.2714H18.5726C18.5578 78.2714 18.5503 78.2639 18.5503 78.2492V76.7802C18.5503 76.7653 18.5578 76.7578 18.5726 76.7578H19.1582C19.228 76.7578 19.2922 76.7691 19.3509 76.7913C19.4094 76.8135 19.4603 76.8443 19.5034 76.8836C19.5464 76.9229 19.5802 76.9704 19.6047 77.026C19.6292 77.0817 19.6414 77.143 19.6414 77.2097C19.6414 77.3092 19.6154 77.3952 19.5635 77.4679C19.5115 77.5406 19.4417 77.5932 19.3541 77.6259L19.6726 78.2425C19.677 78.2499 19.6774 78.2564 19.6737 78.2625C19.6699 78.2685 19.6644 78.2714 19.657 78.2714H19.4098ZM19.1493 77.4224C19.2191 77.4224 19.2751 77.4033 19.3174 77.365C19.3598 77.3265 19.3809 77.2749 19.3809 77.2102C19.3809 77.1437 19.3598 77.0916 19.3174 77.0531C19.2751 77.0148 19.2191 76.9956 19.1493 76.9956H18.8264C18.8175 76.9956 18.8131 77 18.8131 77.0089V77.4091C18.8131 77.418 18.8175 77.4224 18.8264 77.4224H19.1493Z" fill="#FDFFFF"/>
<path d="M20.8193 76.782C20.8193 76.7672 20.8268 76.7598 20.8417 76.7598H21.0599C21.0747 76.7598 21.0821 76.7672 21.0821 76.782V78.2488C21.0821 78.2636 21.0747 78.271 21.0599 78.271H20.8417C20.8268 78.271 20.8193 78.2636 20.8193 78.2488V76.782Z" fill="#FDFFFF"/>
<path d="M22.6987 76.782C22.7032 76.7672 22.7128 76.7598 22.7276 76.7598H22.9325C22.9473 76.7598 22.957 76.7672 22.9615 76.782L23.4736 78.2488C23.4781 78.2636 23.4728 78.271 23.458 78.271H23.2398C23.2249 78.271 23.2153 78.2636 23.2109 78.2488L23.1106 77.9554H22.5406L22.4404 78.2488C22.436 78.2636 22.4263 78.271 22.4114 78.271H22.1955C22.1806 78.271 22.1755 78.2636 22.1799 78.2488L22.6987 76.782ZM23.0305 77.7221L22.8301 77.1353H22.8234L22.6208 77.7221H23.0305Z" fill="#FDFFFF"/>
<path d="M24.5714 76.782C24.5714 76.7672 24.5789 76.7598 24.5937 76.7598H24.812C24.8267 76.7598 24.8342 76.7672 24.8342 76.782V78.02C24.8342 78.0288 24.8386 78.0332 24.8475 78.0332H25.5423C25.5571 78.0332 25.5645 78.0407 25.5645 78.0557V78.2485C25.5645 78.2636 25.5571 78.271 25.5423 78.271H24.5937C24.5789 78.271 24.5714 78.2636 24.5714 78.2488V76.782Z" fill="#FDFFFF"/>
<path d="M28.0917 76.782C28.0917 76.7672 28.0991 76.7598 28.114 76.7598H28.3322C28.347 76.7598 28.3545 76.7672 28.3545 76.782V78.2488C28.3545 78.2636 28.347 78.271 28.3322 78.271H28.114C28.0991 78.271 28.0917 78.2636 28.0917 78.2488V76.782Z" fill="#FDFFFF"/>
<path d="M29.5792 76.782C29.5792 76.7672 29.5867 76.7598 29.6015 76.7598H29.8064C29.8227 76.7598 29.8353 76.7672 29.8442 76.782L30.4611 77.8243H30.47V76.782C30.47 76.7672 30.4774 76.7598 30.4922 76.7598H30.6859C30.7008 76.7598 30.7082 76.7672 30.7082 76.782V78.2488C30.7082 78.2636 30.7008 78.271 30.6859 78.271H30.4833C30.4669 78.271 30.4544 78.2636 30.4455 78.2488L29.8264 77.2086H29.8175V78.2488C29.8175 78.2636 29.8101 78.271 29.7952 78.271H29.6015C29.5867 78.271 29.5792 78.2636 29.5792 78.2488V76.782Z" fill="#FDFFFF"/>
<path d="M32.2691 78.2714C32.2543 78.2714 32.2468 78.2639 32.2468 78.2492V77.009C32.2468 77 32.2424 76.9956 32.2335 76.9956H31.8371C31.8222 76.9956 31.8148 76.9882 31.8148 76.9733V76.7803C31.8148 76.7654 31.8222 76.7578 31.8371 76.7578H32.9193C32.9341 76.7578 32.9416 76.7654 32.9416 76.7803V76.9733C32.9416 76.9882 32.9341 76.9956 32.9193 76.9956H32.5229C32.514 76.9956 32.5096 77 32.5096 77.009V78.2492C32.5096 78.2639 32.5021 78.2714 32.4873 78.2714H32.2691Z" fill="#FDFFFF"/>
<path d="M34.0482 76.7802C34.0482 76.7653 34.0557 76.7578 34.0705 76.7578H35.0191C35.0339 76.7578 35.0413 76.7654 35.0413 76.7803V76.9733C35.0413 76.9882 35.0339 76.9956 35.0191 76.9956H34.3243C34.3154 76.9956 34.311 77 34.311 77.0089V77.3758C34.311 77.3846 34.3154 77.389 34.3243 77.389H34.91C34.9248 77.389 34.9323 77.3966 34.9323 77.4115V77.6044C34.9323 77.6193 34.9248 77.6268 34.91 77.6268H34.3243C34.3154 77.6268 34.311 77.6312 34.311 77.6402V78.0203C34.311 78.0291 34.3154 78.0335 34.3243 78.0335H35.0191C35.0339 78.0335 35.0413 78.041 35.0413 78.056V78.2488C35.0413 78.2639 35.0339 78.2714 35.0191 78.2714H34.0705C34.0557 78.2714 34.0482 78.2639 34.0482 78.2492V76.7802Z" fill="#FDFFFF"/>
<path d="M36.2081 76.782C36.2081 76.7672 36.2156 76.7598 36.2304 76.7598H36.4487C36.4635 76.7598 36.4709 76.7672 36.4709 76.782V78.02C36.4709 78.0288 36.4753 78.0332 36.4843 78.0332H37.179C37.1938 78.0332 37.2013 78.0407 37.2013 78.0557V78.2485C37.2013 78.2636 37.1938 78.271 37.179 78.271H36.2304C36.2156 78.271 36.2081 78.2636 36.2081 78.2488V76.782Z" fill="#FDFFFF"/>
<path d="M38.3123 76.782C38.3123 76.7672 38.3197 76.7598 38.3346 76.7598H38.5528C38.5676 76.7598 38.575 76.7672 38.575 76.782V78.02C38.575 78.0288 38.5795 78.0332 38.5884 78.0332H39.2831C39.2979 78.0332 39.3054 78.0407 39.3054 78.0557V78.2485C39.3054 78.2636 39.2979 78.271 39.2831 78.271H38.3346C38.3197 78.271 38.3123 78.2636 38.3123 78.2488V76.782Z" fill="#FDFFFF"/>
<path d="M40.4166 76.782C40.4166 76.7672 40.4241 76.7598 40.4389 76.7598H40.6572C40.672 76.7598 40.6794 76.7672 40.6794 76.782V78.2488C40.6794 78.2636 40.672 78.271 40.6572 78.271H40.4389C40.4241 78.271 40.4166 78.2636 40.4166 78.2488V76.782Z" fill="#FDFFFF"/>
<path d="M41.8996 77.9298C41.8921 77.9061 41.8859 77.8824 41.8807 77.8587C41.8753 77.835 41.8714 77.8074 41.8683 77.7763C41.8654 77.7452 41.8632 77.7085 41.8618 77.6662C41.8603 77.6239 41.8595 77.5731 41.8595 77.5137C41.8595 77.4544 41.8603 77.4036 41.8618 77.3613C41.8632 77.3189 41.8654 77.2822 41.8683 77.2511C41.8714 77.2199 41.8753 77.1925 41.8807 77.1687C41.8859 77.1449 41.8921 77.1212 41.8996 77.0975C41.9381 76.9774 42.0042 76.8865 42.0978 76.8249C42.1913 76.7633 42.3056 76.7324 42.4407 76.7324C42.5118 76.7324 42.5764 76.7415 42.6343 76.7593C42.6922 76.7774 42.7435 76.8008 42.788 76.83C42.8325 76.8592 42.8697 76.8936 42.8994 76.9331C42.9291 76.9728 42.9521 77.0133 42.9684 77.0548C42.9743 77.0682 42.9713 77.0785 42.9594 77.0858L42.7725 77.1681C42.7591 77.1726 42.7493 77.1688 42.7435 77.157C42.7093 77.0963 42.6684 77.0499 42.6211 77.0181C42.5735 76.9862 42.5126 76.9702 42.4384 76.9702C42.3612 76.9702 42.2996 76.9877 42.2536 77.0224C42.2076 77.0572 42.1742 77.1056 42.1534 77.1678C42.149 77.181 42.1448 77.1965 42.1412 77.2143C42.1374 77.2321 42.1345 77.2543 42.1322 77.2809C42.1301 77.3075 42.1285 77.3396 42.1278 77.3773C42.127 77.415 42.1267 77.4605 42.1267 77.5137C42.1267 77.5669 42.127 77.6124 42.1278 77.6501C42.1285 77.6878 42.1301 77.72 42.1322 77.7466C42.1345 77.7732 42.1374 77.7954 42.1412 77.8131C42.1448 77.8309 42.149 77.8464 42.1534 77.8597C42.1742 77.9218 42.2076 77.9703 42.2536 78.005C42.2996 78.0398 42.3612 78.0571 42.4384 78.0571C42.5053 78.0571 42.5645 78.0413 42.6165 78.0095C42.6684 77.9779 42.7049 77.9311 42.7257 77.8692C42.733 77.8456 42.739 77.8181 42.7435 77.7863C42.748 77.7547 42.7501 77.7174 42.7501 77.6747C42.7501 77.6659 42.7457 77.6615 42.7368 77.6615H42.4875C42.4725 77.6615 42.4652 77.654 42.4652 77.6393V77.4615C42.4652 77.4466 42.4725 77.4392 42.4875 77.4392H42.9884C43.0033 77.4392 43.0108 77.4466 43.0108 77.4615V77.5926C43.0108 77.6548 43.0077 77.7159 43.0018 77.776C42.9958 77.836 42.987 77.8853 42.9751 77.9238C42.9379 78.0424 42.8723 78.1337 42.778 78.1982C42.6837 78.2627 42.5712 78.2949 42.4407 78.2949C42.3056 78.2949 42.1913 78.2641 42.0978 78.2025C42.0042 78.1409 41.9381 78.0501 41.8996 77.9298Z" fill="#FDFFFF"/>
<path d="M44.1908 76.7802C44.1908 76.7653 44.1983 76.7578 44.213 76.7578H45.1617C45.1765 76.7578 45.1839 76.7654 45.1839 76.7803V76.9733C45.1839 76.9882 45.1765 76.9956 45.1617 76.9956H44.467C44.458 76.9956 44.4536 77 44.4536 77.0089V77.3758C44.4536 77.3846 44.458 77.389 44.467 77.389H45.0526C45.0674 77.389 45.0748 77.3966 45.0748 77.4115V77.6044C45.0748 77.6193 45.0674 77.6268 45.0526 77.6268H44.467C44.458 77.6268 44.4536 77.6312 44.4536 77.6402V78.0203C44.4536 78.0291 44.458 78.0335 44.467 78.0335H45.1617C45.1765 78.0335 45.1839 78.041 45.1839 78.056V78.2488C45.1839 78.2639 45.1765 78.2714 45.1617 78.2714H44.213C44.1983 78.2714 44.1908 78.2639 44.1908 78.2492V76.7802Z" fill="#FDFFFF"/>
<path d="M46.3507 76.782C46.3507 76.7672 46.3582 76.7598 46.373 76.7598H46.5779C46.5942 76.7598 46.6068 76.7672 46.6158 76.782L47.2325 77.8243H47.2415V76.782C47.2415 76.7672 47.2488 76.7598 47.2637 76.7598H47.4575C47.4723 76.7598 47.4797 76.7672 47.4797 76.782V78.2488C47.4797 78.2636 47.4723 78.271 47.4575 78.271H47.2547C47.2384 78.271 47.2258 78.2636 47.2169 78.2488L46.598 77.2086H46.589V78.2488C46.589 78.2636 46.5815 78.271 46.5667 78.271H46.373C46.3582 78.271 46.3507 78.2636 46.3507 78.2488V76.782Z" fill="#FDFFFF"/>
<path d="M48.7 77.9232C48.6925 77.8994 48.6863 77.8762 48.6811 77.8531C48.6758 77.8301 48.6718 77.8035 48.6687 77.7729C48.6659 77.7425 48.6636 77.7069 48.6622 77.6662C48.6607 77.6254 48.6599 77.5745 48.6599 77.5137C48.6599 77.4544 48.6607 77.4039 48.6622 77.3624C48.6636 77.3209 48.6659 77.2848 48.6687 77.2544C48.6718 77.224 48.6758 77.1972 48.6811 77.1743C48.6863 77.1513 48.6925 77.1279 48.7 77.1042C48.7385 76.9795 48.8036 76.8865 48.8948 76.8249C48.9861 76.7633 49.0964 76.7324 49.2254 76.7324C49.3471 76.7324 49.4523 76.7616 49.5406 76.82C49.6288 76.8784 49.6945 76.9581 49.7376 77.0592C49.742 77.0726 49.7384 77.0814 49.7265 77.0858L49.5373 77.177C49.5239 77.1845 49.5143 77.1807 49.5083 77.1659C49.483 77.1126 49.4484 77.0666 49.4047 77.028C49.361 76.9895 49.3011 76.9702 49.2254 76.9702C49.1527 76.9702 49.0944 76.988 49.0507 77.0236C49.007 77.059 48.9747 77.1078 48.9538 77.1699C48.9494 77.1861 48.9453 77.2024 48.9416 77.2187C48.9378 77.235 48.9349 77.2561 48.9326 77.2819C48.9305 77.3078 48.929 77.3393 48.9282 77.3762C48.9274 77.4132 48.9271 77.4589 48.9271 77.5137C48.9271 77.5699 48.9274 77.6162 48.9282 77.6523C48.929 77.6885 48.9305 77.7196 48.9326 77.7456C48.9349 77.7714 48.9378 77.7928 48.9416 77.8099C48.9453 77.8267 48.9494 77.8427 48.9538 77.8575C48.9747 77.9195 49.007 77.9683 49.0507 78.0039C49.0944 78.0393 49.1527 78.0571 49.2254 78.0571C49.3011 78.0571 49.361 78.0378 49.4047 77.9993C49.4484 77.9609 49.483 77.9148 49.5083 77.8616C49.5143 77.8467 49.5239 77.843 49.5373 77.8505L49.7265 77.9415C49.7384 77.946 49.742 77.9548 49.7376 77.9682C49.6945 78.0693 49.6288 78.1491 49.5406 78.2073C49.4523 78.2657 49.3471 78.2949 49.2254 78.2949C49.0964 78.2949 48.9861 78.2641 48.8948 78.2025C48.8036 78.1409 48.7385 78.0478 48.7 77.9232Z" fill="#FDFFFF"/>
<path d="M50.8755 76.7802C50.8755 76.7653 50.883 76.7578 50.8977 76.7578H51.8464C51.8612 76.7578 51.8686 76.7654 51.8686 76.7803V76.9733C51.8686 76.9882 51.8612 76.9956 51.8464 76.9956H51.1517C51.1427 76.9956 51.1383 77 51.1383 77.0089V77.3758C51.1383 77.3846 51.1427 77.389 51.1517 77.389H51.7373C51.7521 77.389 51.7595 77.3966 51.7595 77.4115V77.6044C51.7595 77.6193 51.7521 77.6268 51.7373 77.6268H51.1517C51.1427 77.6268 51.1383 77.6312 51.1383 77.6402V78.0203C51.1383 78.0291 51.1427 78.0335 51.1517 78.0335H51.8464C51.8612 78.0335 51.8686 78.041 51.8686 78.056V78.2488C51.8686 78.2639 51.8612 78.2714 51.8464 78.2714H50.8977C50.883 78.2714 50.8755 78.2639 50.8755 78.2492V76.7802Z" fill="#FDFFFF"/>
<path d="M54.4517 76.7802C54.4517 76.7653 54.4591 76.7578 54.4739 76.7578H55.4225C55.4373 76.7578 55.4448 76.7654 55.4448 76.7803V76.9733C55.4448 76.9882 55.4373 76.9956 55.4225 76.9956H54.7279C54.7189 76.9956 54.7145 77 54.7145 77.0089V77.3758C54.7145 77.3846 54.7189 77.389 54.7279 77.389H55.3135C55.3282 77.389 55.3357 77.3966 55.3357 77.4115V77.6044C55.3357 77.6193 55.3282 77.6268 55.3135 77.6268H54.7279C54.7189 77.6268 54.7145 77.6312 54.7145 77.6402V78.0203C54.7145 78.0291 54.7189 78.0335 54.7279 78.0335H55.4225C55.4373 78.0335 55.4448 78.041 55.4448 78.056V78.2488C55.4448 78.2639 55.4373 78.2714 55.4225 78.2714H54.4739C54.4591 78.2714 54.4517 78.2639 54.4517 78.2492V76.7802Z" fill="#FDFFFF"/>
<path d="M56.607 77.9232C56.5995 77.8994 56.5933 77.8762 56.5881 77.8531C56.5827 77.8301 56.5788 77.8035 56.5757 77.7729C56.5728 77.7425 56.5706 77.7069 56.5692 77.6662C56.5677 77.6254 56.5669 77.5745 56.5669 77.5137C56.5669 77.4544 56.5677 77.4039 56.5692 77.3624C56.5706 77.3209 56.5728 77.2848 56.5757 77.2544C56.5788 77.224 56.5827 77.1972 56.5881 77.1743C56.5933 77.1513 56.5995 77.1279 56.607 77.1042C56.6455 76.9795 56.7106 76.8865 56.8018 76.8249C56.8931 76.7633 57.0034 76.7324 57.1324 76.7324C57.2541 76.7324 57.3592 76.7616 57.4476 76.82C57.5358 76.8784 57.6015 76.9581 57.6446 77.0592C57.649 77.0726 57.6453 77.0814 57.6335 77.0858L57.4442 77.177C57.4308 77.1845 57.4212 77.1807 57.4153 77.1659C57.39 77.1126 57.3554 77.0666 57.3117 77.028C57.268 76.9895 57.2081 76.9702 57.1324 76.9702C57.0597 76.9702 57.0014 76.988 56.9577 77.0236C56.9139 77.059 56.8816 77.1078 56.8608 77.1699C56.8563 77.1861 56.8522 77.2024 56.8486 77.2187C56.8448 77.235 56.8419 77.2561 56.8396 77.2819C56.8375 77.3078 56.8359 77.3393 56.8352 77.3762C56.8344 77.4132 56.8341 77.4589 56.8341 77.5137C56.8341 77.5699 56.8344 77.6162 56.8352 77.6523C56.8359 77.6885 56.8375 77.7196 56.8396 77.7456C56.8419 77.7714 56.8448 77.7928 56.8486 77.8099C56.8522 77.8267 56.8563 77.8427 56.8608 77.8575C56.8816 77.9195 56.9139 77.9683 56.9577 78.0039C57.0014 78.0393 57.0597 78.0571 57.1324 78.0571C57.2081 78.0571 57.268 78.0378 57.3117 77.9993C57.3554 77.9609 57.39 77.9148 57.4153 77.8616C57.4212 77.8467 57.4308 77.843 57.4442 77.8505L57.6335 77.9415C57.6453 77.946 57.649 77.9548 57.6446 77.9682C57.6015 78.0693 57.5358 78.1491 57.4476 78.2073C57.3592 78.2657 57.2541 78.2949 57.1324 78.2949C57.0034 78.2949 56.8931 78.2641 56.8018 78.2025C56.7106 78.1409 56.6455 78.0478 56.607 77.9232Z" fill="#FDFFFF"/>
<path d="M59.3124 78.2949C59.1817 78.2949 59.0697 78.2641 58.9762 78.2025C58.8826 78.1409 58.8165 78.0501 58.778 77.9298C58.7705 77.9061 58.7643 77.8824 58.7591 77.8587C58.7538 77.835 58.7498 77.8074 58.7468 77.7763C58.7439 77.7452 58.7416 77.7085 58.7402 77.6662C58.7387 77.6239 58.7379 77.5731 58.7379 77.5137C58.7379 77.4544 58.7387 77.4036 58.7402 77.3613C58.7416 77.3189 58.7439 77.2822 58.7468 77.2511C58.7498 77.2199 58.7538 77.1925 58.7591 77.1687C58.7643 77.1449 58.7705 77.1212 58.778 77.0975C58.8165 76.9774 58.8826 76.8865 58.9762 76.8249C59.0697 76.7633 59.1817 76.7324 59.3124 76.7324C59.4445 76.7324 59.5574 76.7633 59.6509 76.8249C59.7443 76.8865 59.8104 76.9774 59.849 77.0975C59.8564 77.1212 59.8627 77.1449 59.868 77.1687C59.8732 77.1925 59.8771 77.2199 59.8802 77.2511C59.8831 77.2822 59.8854 77.3189 59.8869 77.3613C59.8884 77.4036 59.8892 77.4544 59.8892 77.5137C59.8892 77.5731 59.8884 77.6239 59.8869 77.6662C59.8854 77.7085 59.8831 77.7452 59.8802 77.7763C59.8771 77.8074 59.8732 77.835 59.868 77.8587C59.8627 77.8824 59.8564 77.9061 59.849 77.9298C59.8104 78.0501 59.7443 78.1409 59.6509 78.2025C59.5574 78.2641 59.4445 78.2949 59.3124 78.2949ZM59.3124 78.0571C59.3881 78.0571 59.4489 78.0398 59.4949 78.005C59.5409 77.9703 59.5744 77.9218 59.5952 77.8597C59.5996 77.8464 59.6034 77.8309 59.6063 77.8131C59.6093 77.7954 59.6119 77.7732 59.614 77.7466C59.6163 77.72 59.6182 77.6878 59.6197 77.6501C59.6212 77.6124 59.622 77.5669 59.622 77.5137C59.622 77.4605 59.6212 77.415 59.6197 77.3773C59.6182 77.3396 59.6163 77.3075 59.614 77.2809C59.6119 77.2543 59.6093 77.2321 59.6063 77.2143C59.6034 77.1965 59.5996 77.181 59.5952 77.1678C59.5744 77.1056 59.5409 77.0572 59.4949 77.0224C59.4489 76.9877 59.3881 76.9702 59.3124 76.9702C59.2367 76.9702 59.1762 76.9877 59.131 77.0224C59.0856 77.0572 59.0527 77.1056 59.0318 77.1678C59.0274 77.181 59.0233 77.1965 59.0196 77.2143C59.0158 77.2321 59.0129 77.2543 59.0106 77.2809C59.0085 77.3075 59.007 77.3396 59.0062 77.3773C59.0054 77.415 59.0051 77.4605 59.0051 77.5137C59.0051 77.5669 59.0054 77.6124 59.0062 77.6501C59.007 77.6878 59.0085 77.72 59.0106 77.7466C59.0129 77.7732 59.0158 77.7954 59.0196 77.8131C59.0233 77.8309 59.0274 77.8464 59.0318 77.8597C59.0527 77.9218 59.0856 77.9703 59.131 78.005C59.1762 78.0398 59.2367 78.0571 59.3124 78.0571Z" fill="#FDFFFF"/>
<path d="M61.5459 78.2949C61.4895 78.2949 61.4345 78.2896 61.3812 78.2793C61.3277 78.2688 61.2768 78.2545 61.2285 78.2365C61.1804 78.2186 61.1358 78.1973 61.0949 78.1727C61.0541 78.148 61.0189 78.1214 60.9892 78.093C60.9773 78.081 60.9758 78.0699 60.9848 78.0594L61.1228 77.8993C61.1332 77.8874 61.1435 77.8867 61.154 77.897C61.1776 77.9163 61.2048 77.9356 61.2352 77.9548C61.2657 77.9741 61.2983 77.9911 61.3332 78.006C61.3681 78.0208 61.4048 78.0331 61.4435 78.0427C61.482 78.0522 61.5229 78.0571 61.566 78.0571C61.6565 78.0571 61.7265 78.0367 61.7764 77.996C61.826 77.9552 61.851 77.9031 61.851 77.8392C61.851 77.7845 61.8309 77.7396 61.7908 77.7048C61.7508 77.67 61.6787 77.6452 61.5748 77.6303L61.4947 77.6192C61.3477 77.5985 61.2349 77.5529 61.1562 77.4827C61.0776 77.4123 61.0383 77.314 61.0383 77.1881C61.0383 77.12 61.05 77.0577 61.0737 77.0014C61.0975 76.9451 61.1316 76.8969 61.1763 76.857C61.2208 76.817 61.2745 76.7862 61.3376 76.7647C61.4008 76.7432 61.4717 76.7324 61.5503 76.7324C61.6453 76.7324 61.7355 76.7464 61.8208 76.7739C61.9062 76.8016 61.9793 76.8387 62.0402 76.8851C62.0506 76.8941 62.0521 76.9045 62.0446 76.9164L61.9378 77.0814C61.9289 77.0932 61.9185 77.0955 61.9066 77.0881C61.8443 77.0481 61.7841 77.0184 61.7262 76.9991C61.6683 76.98 61.6074 76.9702 61.5437 76.9702C61.4665 76.9702 61.4074 76.9892 61.3667 77.0269C61.3257 77.0648 61.3055 77.1133 61.3055 77.1726C61.3055 77.2245 61.3262 77.2678 61.3679 77.3026C61.4097 77.3374 61.4817 77.3622 61.5846 77.377L61.6648 77.3881C61.8123 77.4089 61.9246 77.4545 62.002 77.5248C62.0794 77.5952 62.1182 77.6955 62.1182 77.826C62.1182 77.8926 62.1062 77.9548 62.0823 78.0127C62.0582 78.0705 62.0219 78.1201 61.9733 78.1616C61.9247 78.2031 61.8647 78.2356 61.7933 78.2593C61.7218 78.2831 61.6394 78.2949 61.5459 78.2949Z" fill="#FDFFFF"/>
<path d="M63.5654 78.271C63.5505 78.271 63.5432 78.2636 63.5432 78.2488V77.6532L63.1044 76.782C63.0985 76.7672 63.1044 76.7598 63.1222 76.7598H63.3472C63.362 76.7598 63.3724 76.7672 63.3783 76.782L63.6745 77.3687H63.6812L63.9796 76.782C63.9854 76.7672 63.9959 76.7598 64.0107 76.7598H64.2267C64.2445 76.7598 64.2505 76.7672 64.2445 76.782L63.8059 77.6532V78.2488C63.8059 78.2636 63.7985 78.271 63.7835 78.271H63.5654Z" fill="#FDFFFF"/>
<path d="M65.7498 78.2949C65.6935 78.2949 65.6385 78.2896 65.5852 78.2793C65.5317 78.2688 65.4808 78.2545 65.4325 78.2365C65.3844 78.2186 65.3397 78.1973 65.2989 78.1727C65.2581 78.148 65.2229 78.1214 65.1932 78.093C65.1813 78.081 65.1798 78.0699 65.1888 78.0594L65.3268 77.8993C65.3371 77.8874 65.3475 77.8867 65.358 77.897C65.3816 77.9163 65.4087 77.9356 65.4392 77.9548C65.4697 77.9741 65.5023 77.9911 65.5372 78.006C65.5721 78.0208 65.6088 78.0331 65.6475 78.0427C65.686 78.0522 65.7268 78.0571 65.77 78.0571C65.8604 78.0571 65.9305 78.0367 65.9803 77.996C66.03 77.9552 66.055 77.9031 66.055 77.8392C66.055 77.7845 66.0349 77.7396 65.9948 77.7048C65.9547 77.67 65.8827 77.6452 65.7788 77.6303L65.6987 77.6192C65.5516 77.5985 65.4389 77.5529 65.3601 77.4827C65.2815 77.4123 65.2422 77.314 65.2422 77.1881C65.2422 77.12 65.254 77.0577 65.2777 77.0014C65.3015 76.9451 65.3356 76.8969 65.3803 76.857C65.4247 76.817 65.4785 76.7862 65.5416 76.7647C65.6048 76.7432 65.6757 76.7324 65.7543 76.7324C65.8493 76.7324 65.9395 76.7464 66.0248 76.7739C66.1101 76.8016 66.1833 76.8387 66.2442 76.8851C66.2546 76.8941 66.2561 76.9045 66.2486 76.9164L66.1418 77.0814C66.1328 77.0932 66.1225 77.0955 66.1106 77.0881C66.0483 77.0481 65.9881 77.0184 65.9302 76.9991C65.8723 76.98 65.8114 76.9702 65.7477 76.9702C65.6705 76.9702 65.6114 76.9892 65.5707 77.0269C65.5297 77.0648 65.5094 77.1133 65.5094 77.1726C65.5094 77.2245 65.5302 77.2678 65.5719 77.3026C65.6136 77.3374 65.6857 77.3622 65.7885 77.377L65.8688 77.3881C66.0163 77.4089 66.1286 77.4545 66.206 77.5248C66.2833 77.5952 66.3222 77.6955 66.3222 77.826C66.3222 77.8926 66.3102 77.9548 66.2862 78.0127C66.2622 78.0705 66.2259 78.1201 66.1773 78.1616C66.1287 78.2031 66.0687 78.2356 65.9972 78.2593C65.9258 78.2831 65.8434 78.2949 65.7498 78.2949Z" fill="#FDFFFF"/>
<path d="M67.8073 78.2714C67.7925 78.2714 67.785 78.2639 67.785 78.2492V77.009C67.785 77 67.7806 76.9956 67.7716 76.9956H67.3754C67.3605 76.9956 67.3531 76.9882 67.3531 76.9733V76.7803C67.3531 76.7654 67.3605 76.7578 67.3754 76.7578H68.4575C68.4724 76.7578 68.4797 76.7654 68.4797 76.7803V76.9733C68.4797 76.9882 68.4724 76.9956 68.4575 76.9956H68.0612C68.0523 76.9956 68.0478 77 68.0478 77.009V78.2492C68.0478 78.2639 68.0404 78.2714 68.0256 78.2714H67.8073Z" fill="#FDFFFF"/>
<path d="M69.5865 76.7802C69.5865 76.7653 69.594 76.7578 69.6088 76.7578H70.5574C70.5722 76.7578 70.5797 76.7654 70.5797 76.7803V76.9733C70.5797 76.9882 70.5722 76.9956 70.5574 76.9956H69.8627C69.8538 76.9956 69.8493 77 69.8493 77.0089V77.3758C69.8493 77.3846 69.8538 77.389 69.8627 77.389H70.4484C70.4631 77.389 70.4706 77.3966 70.4706 77.4115V77.6044C70.4706 77.6193 70.4631 77.6268 70.4484 77.6268H69.8627C69.8538 77.6268 69.8493 77.6312 69.8493 77.6402V78.0203C69.8493 78.0291 69.8538 78.0335 69.8627 78.0335H70.5574C70.5722 78.0335 70.5797 78.041 70.5797 78.056V78.2488C70.5797 78.2639 70.5722 78.2714 70.5574 78.2714H69.6088C69.594 78.2714 69.5865 78.2639 69.5865 78.2492V76.7802Z" fill="#FDFFFF"/>
<path d="M71.7465 76.782C71.7465 76.7672 71.7539 76.7598 71.7687 76.7598H71.9669C71.9862 76.7598 71.9989 76.7672 72.0048 76.782L72.4212 77.7131H72.43L72.8398 76.782C72.8458 76.7672 72.8584 76.7598 72.8776 76.7598H73.0737C73.0885 76.7598 73.0959 76.7672 73.0959 76.782V78.2488C73.0959 78.2636 73.0885 78.271 73.0737 78.271H72.8799C72.865 78.271 72.8577 78.2636 72.8577 78.2488V77.3242H72.8487L72.5281 78.0355C72.5191 78.0547 72.505 78.0644 72.4858 78.0644H72.3566C72.3372 78.0644 72.3232 78.0547 72.3142 78.0355L71.9937 77.3242H71.9847V78.2488C71.9847 78.2636 71.9773 78.271 71.9625 78.271H71.7687C71.7539 78.271 71.7465 78.2636 71.7465 78.2488V76.782Z" fill="#FDFFFF"/>
<path d="M38.3766 38.2822L3.76106 36.0488L3.65637 37.3273L38.2719 39.5606L38.3766 38.2822Z" fill="#D9BB75"/>
<path d="M52.3568 16.5429L41.4177 35.377L42.5299 36.0204L53.469 17.1864L52.3568 16.5429Z" fill="#D9BB75"/>
<path d="M43.4558 40.9199L42.6797 41.9422L61.4575 52.2039L62.2336 51.1815L43.4558 40.9199Z" fill="#D9BB75"/>
<path d="M67.6312 27.3018V59.4812H59.39V32.102L39.4628 20.8702L19.5356 32.102V59.4812H11.2943V27.3018L19.5356 22.6577L31.0844 16.147L39.4649 11.4238L47.8433 16.147L59.39 22.6556L67.6312 27.3018Z" fill="#FDFFFF"/>
<path d="M39.9227 44.0028C42.8679 44.0028 45.2555 41.6197 45.2555 38.6801C45.2555 35.7405 42.8679 33.3574 39.9227 33.3574C36.9774 33.3574 34.5898 35.7405 34.5898 38.6801C34.5898 41.6197 36.9774 44.0028 39.9227 44.0028Z" fill="#D9BB75"/>
<path d="M34.0429 52.2036C35.7143 52.2036 37.0694 50.8511 37.0694 49.1828C37.0694 47.5145 35.7143 46.1621 34.0429 46.1621C32.3714 46.1621 31.0164 47.5145 31.0164 49.1828C31.0164 50.8511 32.3714 52.2036 34.0429 52.2036Z" fill="#D9BB75"/>
<path d="M3.44598 39.2423C4.95852 39.2423 6.18468 38.0185 6.18468 36.5089C6.18468 34.9992 4.95852 33.7754 3.44598 33.7754C1.93343 33.7754 0.707275 34.9992 0.707275 36.5089C0.707275 38.0185 1.93343 39.2423 3.44598 39.2423Z" fill="#D9BB75"/>
<path d="M53.6786 18.3048C55.1912 18.3048 56.4173 17.081 56.4173 15.5714C56.4173 14.0617 55.1912 12.8379 53.6786 12.8379C52.1661 12.8379 50.9399 14.0617 50.9399 15.5714C50.9399 17.081 52.1661 18.3048 53.6786 18.3048Z" fill="#D9BB75"/>
<path d="M27.4794 29.5654C29.8859 29.5654 31.8368 27.6183 31.8368 25.2163C31.8368 22.8144 29.8859 20.8672 27.4794 20.8672C25.0728 20.8672 23.1219 22.8144 23.1219 25.2163C23.1219 27.6183 25.0728 29.5654 27.4794 29.5654Z" fill="#D9BB75"/>
<path d="M73.6426 43.2686C76.0491 43.2686 78 41.3214 78 38.9194C78 36.5175 76.0491 34.5703 73.6426 34.5703C71.236 34.5703 69.2852 36.5175 69.2852 38.9194C69.2852 41.3214 71.236 43.2686 73.6426 43.2686Z" fill="#D9BB75"/>
<path d="M27.9572 24.7862L27.0037 25.6465L39.1986 39.1121L40.1521 38.2518L27.9572 24.7862Z" fill="#D9BB75"/>
<path d="M37.9254 41.6416L33.4951 48.8477L34.5906 49.5186L39.0209 42.3125L37.9254 41.6416Z" fill="#D9BB75"/>
<path d="M75.1193 38.2773H43.3412V39.5602H75.1193V38.2773Z" fill="#D9BB75"/>
<path d="M19.3074 13.0537C22.5851 13.0537 25.2421 10.4017 25.2421 7.13035C25.2421 3.85899 22.5851 1.20703 19.3074 1.20703C16.0298 1.20703 13.3728 3.85899 13.3728 7.13035C13.3728 10.4017 16.0298 13.0537 19.3074 13.0537Z" fill="#FDFFFF"/>
<path d="M22.5337 14.0078H16.1609V25.2184H22.5337V14.0078Z" fill="#FDFFFF"/>
<path d="M23.4221 7.85007C23.3775 8.52157 22.7882 9.02868 22.114 9.02868L16.7232 9.02868C15.9753 9.02868 15.3189 8.47077 15.2627 7.72642C15.2598 7.68755 15.2583 7.64828 15.2583 7.60867C15.2583 6.8613 15.7887 6.23694 16.4938 6.09058C16.4923 6.07968 16.4923 6.06878 16.4923 6.05788C16.4923 5.02713 17.3315 4.18945 18.3643 4.18945C19.2971 4.18945 20.0709 4.87143 20.2129 5.76049C20.4431 5.45216 20.847 5.28254 21.2807 5.39225C21.732 5.50643 22.0408 5.93973 22.0233 6.40407C22.022 6.43909 22.0188 6.47389 22.0131 6.50786C22.0615 6.50319 22.1098 6.50007 22.1582 6.50007C22.8855 6.50007 23.4709 7.11385 23.4221 7.85007Z" fill="#D9BB75"/>
<path d="M18.3644 4.18922C19.2972 4.18922 20.071 4.87119 20.213 5.76025C20.3955 5.51581 20.6872 5.35854 21.0164 5.35854C21.1024 5.35854 21.191 5.36928 21.2808 5.39202C21.7321 5.50619 22.0409 5.9395 22.0234 6.40384C22.0221 6.43885 22.0189 6.47365 22.0132 6.50762C22.0616 6.50295 22.1099 6.49984 22.1583 6.49984C22.8856 6.49984 23.471 7.11362 23.4221 7.84984C23.3776 8.52134 22.7883 9.02844 22.114 9.02844H16.7233C15.9754 9.02844 15.319 8.47053 15.2628 7.72618C15.2599 7.68731 15.2584 7.64804 15.2584 7.60844C15.2584 6.86107 15.7888 6.23671 16.4939 6.09035C16.4924 6.07945 16.4924 6.06855 16.4924 6.05765C16.4924 5.0269 17.3316 4.18922 18.3644 4.18922ZM18.3644 3.56641C17.1332 3.56641 16.1074 4.46066 15.9047 5.63256C15.147 5.98086 14.6344 6.74901 14.6344 7.60844C14.6344 7.66319 14.6365 7.71854 14.6406 7.77295C14.72 8.8262 15.6349 9.65125 16.7233 9.65125H22.114C23.1313 9.65125 23.9794 8.87804 24.0448 7.89095C24.0793 7.3709 23.8948 6.85482 23.5386 6.47505C23.2818 6.20124 22.9489 6.01155 22.588 5.9269C22.4348 5.37769 22.0009 4.9317 21.4341 4.7883C21.2963 4.75342 21.1557 4.73573 21.0164 4.73573C20.8496 4.73573 20.6854 4.76168 20.5292 4.8108C20.0963 4.05718 19.2853 3.56641 18.3644 3.56641Z" fill="#003933"/>
</g>
<defs>
<clipPath id="clip0_47334_1053">
<rect width="78" height="80" fill="white"/>
</clipPath>
</defs>
</svg>
